<svg xmlns="http://www.w3.org/2000/svg" xml:space="preserve" width="125" height="140" style="shape-rendering:geometricPrecision;text-rendering:geometricPrecision;image-rendering:optimizeQuality;fill-rule:evenodd;clip-rule:evenodd" viewBox="0 0 32.655 36.573"><path d="M21.254 32.754c.838-1.397 1.711-3.157 2.8-3.393 1.327-.288 4.168-.572 5.534-.612-.497 1.923.131 1.194-4.44 1.894-2.393.367-1.873.398-3.894 2.111m-9.856-.004c-.378-.335-1.149-1.048-1.585-1.395-1.046-.832-3.869-.88-5.322-1.101-1.393-.212-1.083-.195-1.423-1.506 1.099.033 4.804.369 5.721.645.902.27 2.086 2.469 2.609 3.356zm9.751-6.989c1.04 0 1.068.13 1.068 1.134 0 1.513.151 1.645-1.068 1.645h-9.642c-1.227 0-1.067-.095-1.067-1.645 0-1.006.024-1.134 1.067-1.134zm2.878 1.488c.201-.42.526-.987.847-1.443.873-1.234 4.33-1.614 5.842-1.824.094.859.442 1.989.017 2.611-.868.751-5.289.846-6.706.656M8.63 27.25c-1.282.173-3.801-.052-5.13-.183-2.543-.25-1.809-.817-1.564-3.088 1.48.202 3.044.57 4.475.925 1.262.313 1.742 1.324 2.219 2.346m-4.469-6.58-.686-1.308c-1.313-.229-2.437-.271-3.475.404.125 2.399 2.575 1.792 3.044 2.069-1.884 1.437-2.191.927-2.253 4.369-.041 2.252.597 3.801.584 6.209-.014 2.64-.524 4.061 2.314 4.12 3.171.065 3.552.212 4.253-1.442l.251-.55c.024-.05.058-.133.1-.191 5.526.313 10.544.313 16.07 0l.278.562c.16.375.06.273.261.67.637 1.26 2.137.966 3.834.951 3.07-.027 2.561-1.253 2.545-4.12-.014-2.613 1.209-6.645.2-8.98-.395-.916-1.022-.961-1.864-1.598.453-.271 2.913.327 3.038-2.069-1.041-.674-2.16-.633-3.476-.405l-.684 1.31c-.825-1.344-.94-3.201-1.837-4.402l-1.172.967 1.346 4.019-20.957.057c.152-.782 1.37-4.333 1.688-4.81.734-1.098 3.822-1.315 5.422-1.438 3.486-.269 6.337-.184 9.656.474 1.535.305 1.581.003 2.364-.832-2.044-1.665-16.886-1.793-18.718.745-.902 1.25-1.317 3.882-2.126 5.22z" style="fill:#05203d"/><path d="m19.263 5.276-4.986 1.602c-.34 2.044-.27 1.698-2.24 2.212l-.919-1.237c-2.292.643-.968.555-2.124 1.345-1.217.832-1.903.164-3.083.218-.908 1.349-2 1.868-2.779 3.33 3.482.428 14.833-4.834 16.821-4.574.041.005.126.036.159.043a.7.7 0 0 1 .158.052c-.296.77-1.874.989-3.416 1.452a195 195 0 0 0-3.679 1.135c-1.742.558-6.267 1.724-7.424 2.433 3.601.693 10.144-2.866 15.011-3.755.335 1.517.531 1.839 2.212 1.955 1.313.09 2.909.202 4.198.05l.396-2.52c-1.336.056-.11.175-1.331.456l-2.413-7.456c4.664.092 2.139 3.3 4.524 5.016.916.658.913.764 1.282 1.955.591-1.094-.72-3.612-1.133-4.859-.631-1.905-.564-3.425-2.546-3.855-2.861-.621-2.928-.167-4.722 1.171-1.622 1.21-2.62 1.308-1.965 3.831z" style="fill:#0d529c"/><path d="M26.304 7.577c.26 1.283.21.48 1.582.808.477 2.069-.387 3.993-1.41 5.45-2.396 3.414-3.04 2.304-4.725 2.083 1.123 4.262 7.357-1.631 7.34-6.276-.006-1.664-1.316-3.135-2.787-2.065" style="fill:#126ed0"/></svg>