<svg xmlns="http://www.w3.org/2000/svg" xml:space="preserve" width="358" height="198" style="shape-rendering:geometricPrecision;text-rendering:geometricPrecision;image-rendering:optimizeQuality;fill-rule:evenodd;clip-rule:evenodd" viewBox="0 0 358 197.822"><path d="M197.878 125.502c3.21-5.355 6.556-12.098 10.727-13.002 5.085-1.101 15.969-2.191 21.203-2.344-1.901 7.367.504 4.574-17.011 7.257-9.169 1.405-7.176 1.525-14.919 8.089m-37.764-.018c-1.449-1.282-4.403-4.013-6.075-5.343-4.008-3.186-14.826-3.371-20.392-4.218-5.338-.813-4.15-.748-5.452-5.771 4.209.128 18.406 1.414 21.919 2.47 3.457 1.037 7.994 9.462 9.999 12.862zm37.36-26.779c3.987 0 4.092.502 4.092 4.346 0 5.798.581 6.304-4.092 6.304h-36.942c-4.702 0-4.092-.363-4.092-6.304 0-3.855.093-4.346 4.092-4.346zm11.028 5.703a41 41 0 0 1 3.247-5.528c3.344-4.73 16.591-6.186 22.383-6.988.36 3.29 1.694 7.619.063 10.003-3.323 2.877-20.266 3.242-25.693 2.513m-58.996.003c-4.911.664-14.564-.199-19.655-.699-9.747-.959-6.933-3.132-5.992-11.832 5.67.773 11.662 2.184 17.146 3.542 4.835 1.198 6.674 5.076 8.501 8.989m-17.122-25.21-2.628-5.012c-5.033-.88-9.339-1.04-13.317 1.545.48 9.193 9.865 6.867 11.662 7.931-7.216 5.504-8.391 3.552-8.631 16.739-.157 8.627 2.287 14.563 2.237 23.79-.054 10.117-2.007 15.561 8.867 15.786 12.152.251 13.611.812 16.295-5.526l.963-2.107c.091-.19.223-.507.384-.731 21.172 1.199 40.4 1.199 61.572 0l1.068 2.154c.612 1.435.228 1.046.997 2.567 2.443 4.828 8.189 3.703 14.693 3.645 11.761-.105 9.811-4.803 9.751-15.788-.054-10.01 4.634-25.462.767-34.408-1.516-3.508-3.916-3.683-7.145-6.121 1.737-1.038 11.163 1.252 11.641-7.931-3.989-2.581-8.276-2.424-13.319-1.548l-2.62 5.018c-3.159-5.148-3.602-12.264-7.037-16.866l-4.49 3.704 5.156 15.399-80.3.218c.584-2.997 5.248-16.601 6.47-18.43 2.812-4.206 14.644-5.039 20.774-5.511 13.356-1.028 24.279-.705 36.997 1.818 5.88 1.167 6.056.01 9.058-3.187-7.833-6.383-64.7-6.872-71.721 2.855-3.456 4.789-5.044 14.874-8.144 19.998z" style="fill:#05203d"/><path d="m190.249 20.217-19.104 6.135c-1.306 7.834-1.035 6.507-8.586 8.478l-3.519-4.74c-8.781 2.464-3.71 2.125-8.139 5.154-4.662 3.189-7.29.627-11.814.835-3.479 5.168-7.661 7.158-10.646 12.761 13.34 1.637 56.835-18.523 64.45-17.529.159.021.482.14.61.164.129.025.416.105.607.2-1.136 2.953-7.181 3.789-13.09 5.563-4.567 1.371-9.397 2.841-14.097 4.349-6.673 2.141-24.012 6.608-28.444 9.323 13.795 2.656 38.866-10.98 57.514-14.388 1.283 5.813 2.034 7.048 8.477 7.492 5.029.346 11.145.774 16.084.191l1.519-9.657c-5.12.216-.422.673-5.1 1.748L207.723 7.73c17.87.352 8.195 12.643 17.335 19.217 3.509 2.523 3.498 2.928 4.911 7.492 2.264-4.191-2.758-13.838-4.34-18.619-2.416-7.3-2.162-13.124-9.754-14.771-10.962-2.378-11.219-.638-18.093 4.488-6.217 4.636-10.038 5.012-7.532 14.678z" style="fill:#0d529c"/><path d="M217.228 29.033c.995 4.914.805 1.84 6.059 3.095 1.827 7.927-1.483 15.3-5.402 20.883-9.181 13.08-11.646 8.827-18.105 7.982 4.304 16.33 28.19-6.252 28.125-24.049-.024-6.375-5.042-12.01-10.677-7.911" style="fill:#126ed0"/><path d="M34.91 196.741v-20.358c0-.953.069-2.176.199-3.654.138-1.477.337-3.086.587-4.824-.562 1.704-1.468 3.872-2.738 6.503l-.146.332-10.806 22.744-10.676-22.717q-.131-.301-.457-.996c-1.098-2.29-1.909-4.248-2.427-5.866.267 1.88.466 3.55.612 5.009.147 1.46.216 2.614.216 3.47v20.358H.145v-40.077h12.222l9.692 21.974 10.218-21.974H44.05v40.077h-9.139zm36.814-8.173c3.11 0 5.657-1.101 7.636-3.312 1.978-2.212 2.971-5.053 2.971-8.541 0-3.487-.993-6.328-2.971-8.539-1.978-2.212-4.526-3.313-7.636-3.313-3.118 0-5.675 1.101-7.653 3.313-1.978 2.211-2.971 5.052-2.971 8.539 0 3.471.993 6.312 2.988 8.532 1.987 2.211 4.535 3.322 7.636 3.322zm0-32.673c2.972 0 5.701.498 8.18 1.485s4.682 2.465 6.626 4.432a19.2 19.2 0 0 1 4.379 6.66c.994 2.527 1.495 5.271 1.495 8.243 0 2.955-.501 5.682-1.495 8.19a19.8 19.8 0 0 1-4.379 6.687 19.4 19.4 0 0 1-6.643 4.432c-2.505 1.005-5.225 1.512-8.162 1.512-2.928 0-5.657-.507-8.18-1.512a19.1 19.1 0 0 1-6.642-4.432 19.8 19.8 0 0 1-4.379-6.687c-.994-2.508-1.495-5.235-1.495-8.19q0-4.43 1.477-8.216a19.6 19.6 0 0 1 4.345-6.687 19.2 19.2 0 0 1 6.643-4.414c2.505-1.006 5.252-1.504 8.231-1.504zm32.642 40.846V164.81h-8.931v-8.146h27.778v8.146h-8.906v31.931zm42.601-8.173c3.109 0 5.657-1.101 7.635-3.312 1.978-2.212 2.972-5.053 2.972-8.541 0-3.487-.994-6.328-2.972-8.539-1.978-2.212-4.526-3.313-7.635-3.313-3.118 0-5.675 1.101-7.653 3.313-1.979 2.211-2.972 5.052-2.972 8.539 0 3.471.993 6.312 2.989 8.532 1.986 2.211 4.535 3.322 7.636 3.322zm0-32.673c2.971 0 5.701.498 8.18 1.485s4.682 2.465 6.625 4.432a19.2 19.2 0 0 1 4.38 6.66c.993 2.527 1.494 5.271 1.494 8.243 0 2.955-.501 5.682-1.494 8.19a19.8 19.8 0 0 1-4.38 6.687 19.4 19.4 0 0 1-6.642 4.432c-2.505 1.005-5.226 1.512-8.162 1.512-2.929 0-5.658-.507-8.18-1.512a19.1 19.1 0 0 1-6.642-4.432 19.8 19.8 0 0 1-4.38-6.687c-.993-2.508-1.494-5.235-1.494-8.19q0-4.43 1.477-8.216a19.6 19.6 0 0 1 4.345-6.687 19.2 19.2 0 0 1 6.642-4.414c2.505-1.006 5.252-1.504 8.232-1.504zm40.303 8.583h-2.703v11.083h2.963c1.909 0 3.377-.489 4.414-1.459q1.554-1.456 1.554-4.17 0-2.767-1.528-4.117c-1.02-.892-2.583-1.338-4.7-1.338zm-12.645 32.263v-40.077h14.52c4.44 0 7.955 1.162 10.555 3.479 2.601 2.325 3.896 5.454 3.896 9.379 0 3.086-.786 5.595-2.349 7.526-1.573 1.931-3.706 3.024-6.409 3.278l10.357 16.415h-11.972l-8.655-17.053v17.053zm36.589 0v-40.077h13.837q6.281-.001 9.986 3.627c2.47 2.413 3.706 5.665 3.706 9.764 0 4.44-1.202 7.823-3.602 10.14q-3.616 3.487-10.547 3.487h-3.438v13.059zm9.942-21.18h1.521q2.887-.002 4.439-1.459 1.555-1.455 1.555-4.17c0-1.844-.51-3.216-1.52-4.117-1.011-.891-2.565-1.338-4.682-1.338h-1.313zm42.653 13.007c3.11 0 5.657-1.101 7.636-3.312 1.978-2.212 2.971-5.053 2.971-8.541 0-3.487-.993-6.328-2.971-8.539-1.978-2.212-4.526-3.313-7.636-3.313-3.118 0-5.675 1.101-7.653 3.313-1.978 2.211-2.971 5.052-2.971 8.539 0 3.471.993 6.312 2.988 8.532 1.986 2.211 4.535 3.322 7.636 3.322zm0-32.673c2.972 0 5.701.498 8.18 1.485s4.682 2.465 6.626 4.432a19.2 19.2 0 0 1 4.379 6.66c.994 2.527 1.495 5.271 1.495 8.243 0 2.955-.501 5.682-1.495 8.19a19.8 19.8 0 0 1-4.379 6.687 19.4 19.4 0 0 1-6.643 4.432c-2.505 1.005-5.225 1.512-8.162 1.512-2.929 0-5.657-.507-8.18-1.512a19.1 19.1 0 0 1-6.642-4.432 19.8 19.8 0 0 1-4.38-6.687c-.993-2.508-1.494-5.235-1.494-8.19q0-4.43 1.477-8.216a19.6 19.6 0 0 1 4.345-6.687 19.2 19.2 0 0 1 6.643-4.414c2.505-1.006 5.252-1.504 8.231-1.504zm46.428 32.673c3.109 0 5.657-1.101 7.635-3.312 1.978-2.212 2.971-5.053 2.971-8.541 0-3.487-.993-6.328-2.971-8.539-1.978-2.212-4.526-3.313-7.635-3.313-3.119 0-5.676 1.101-7.654 3.313-1.978 2.211-2.971 5.052-2.971 8.539 0 3.471.993 6.312 2.988 8.532 1.987 2.211 4.535 3.322 7.637 3.322zm0-32.673c2.97 0 5.7.498 8.18 1.485s4.681 2.465 6.625 4.432a19.2 19.2 0 0 1 4.379 6.66c.994 2.527 1.495 5.271 1.495 8.243 0 2.955-.501 5.682-1.495 8.19a19.8 19.8 0 0 1-4.379 6.687 19.4 19.4 0 0 1-6.643 4.432c-2.504 1.005-5.225 1.512-8.162 1.512-2.928 0-5.657-.507-8.18-1.512a19.1 19.1 0 0 1-6.642-4.432 19.8 19.8 0 0 1-4.379-6.687c-.994-2.508-1.495-5.235-1.495-8.19q0-4.43 1.477-8.216a19.6 19.6 0 0 1 4.345-6.687 19.2 19.2 0 0 1 6.643-4.414c2.505-1.006 5.252-1.504 8.232-1.504zm27.657 40.846v-40.077h9.942v31.956h10.02v8.121z" style="stroke:#05203d;stroke-width:.289;stroke-miterlimit:2.61313;fill:#05203d;fill-rule:nonzero"/></svg>