<svg xmlns="http://www.w3.org/2000/svg" xml:space="preserve" width="500" height="140" style="shape-rendering:geometricPrecision;text-rendering:geometricPrecision;image-rendering:optimizeQuality;fill-rule:evenodd;clip-rule:evenodd" viewBox="0 0 522.622 146.294"><path d="M85.017 131.016c3.351-5.59 6.844-12.629 11.198-13.573 5.309-1.149 16.672-2.287 22.135-2.447-1.984 7.691.527 4.775-17.758 7.576-9.572 1.467-7.492 1.592-15.574 8.445zm-39.424-.018c-1.512-1.338-4.595-4.189-6.341-5.578-4.184-3.326-15.478-3.519-21.288-4.404-5.573-.848-4.332-.78-5.692-6.023 4.395.132 19.215 1.476 22.883 2.578 3.608 1.083 8.345 9.878 10.438 13.427m39.003-27.956c4.161 0 4.271.524 4.271 4.537 0 6.053.607 6.581-4.271 6.581H46.03c-4.909 0-4.272-.379-4.272-6.581 0-4.024.097-4.537 4.272-4.537zm11.512 5.954a43 43 0 0 1 3.39-5.771c3.49-4.938 17.319-6.458 23.366-7.295.376 3.434 1.769 7.953.066 10.442-3.469 3.004-21.156 3.385-26.822 2.624m-61.588.003c-5.127.694-15.204-.207-20.519-.73C3.826 107.268 6.764 105 7.745 95.918c5.92.807 12.176 2.279 17.901 3.697 5.046 1.251 6.966 5.299 8.874 9.384M16.646 82.681l-2.744-5.232C8.648 76.53 4.152 76.364 0 79.062c.5 9.596 10.299 7.169 12.174 8.279-7.533 5.746-8.76 3.709-9.01 17.475-.164 9.007 2.387 15.203 2.335 24.835-.057 10.562-2.095 16.245 9.257 16.48 12.685.262 14.209.847 17.01-5.769l1.006-2.2c.095-.197.233-.528.401-.762 22.102 1.251 42.175 1.251 64.278 0l1.114 2.249c.639 1.498.238 1.091 1.042 2.679 2.55 5.041 8.548 3.865 15.338 3.805 12.278-.109 10.242-5.014 10.179-16.481-.056-10.45 4.838-26.581.801-35.921-1.583-3.662-4.088-3.844-7.458-6.389 1.812-1.084 11.653 1.306 12.152-8.28-4.165-2.694-8.64-2.531-13.904-1.616l-2.736 5.238c-3.297-5.374-3.76-12.802-7.346-17.607l-4.687 3.867 5.382 16.076-83.828.228c.61-3.129 5.478-17.332 6.754-19.24 2.935-4.392 15.287-5.261 21.687-5.754 13.943-1.073 25.346-.735 38.623 1.899 6.138 1.217 6.322.01 9.455-3.328-8.176-6.663-67.542-7.174-74.871 2.981-3.608 4.999-5.267 15.527-8.503 20.876z" style="fill:#05203d"/><path d="M77.053 21.106 57.11 27.51c-1.363 8.178-1.081 6.793-8.964 8.85l-3.673-4.947c-9.167 2.571-3.874 2.217-8.497 5.38-4.867 3.329-7.61.654-12.333.872-3.632 5.395-7.997 7.472-11.114 13.321 13.926 1.709 59.332-19.337 67.282-18.299.167.022.504.146.637.171.135.026.434.11.633.209-1.185 3.083-7.496 3.956-13.665 5.807-4.767 1.431-9.81 2.966-14.716 4.54-6.966 2.236-25.067 6.899-29.694 9.733 14.401 2.773 40.574-11.463 60.042-15.02 1.339 6.069 2.122 7.358 8.848 7.821 5.25.361 11.635.808 16.791.199l1.586-10.081c-5.344.226-.441.702-5.324 1.824L95.295 8.069c18.655.369 8.555 13.199 18.097 20.062 3.662 2.634 3.651 3.056 5.127 7.821 2.363-4.375-2.88-14.446-4.532-19.437-2.521-7.62-2.256-13.701-10.182-15.42C92.362-1.388 92.093.429 84.917 5.781c-6.49 4.839-10.479 5.232-7.862 15.322z" style="fill:#0d529c"/><path d="M105.218 30.308c1.039 5.131.84 1.922 6.325 3.232 1.907 8.275-1.549 15.972-5.639 21.8-9.585 13.655-12.159 9.215-18.902 8.333 4.494 17.047 29.43-6.527 29.361-25.106-.024-6.654-5.263-12.537-11.145-8.258z" style="fill:#126ed0"/><path d="M185.335 110.188V88.936c0-.995.072-2.272.207-3.814q.22-2.314.614-5.037c-.587 1.78-1.533 4.043-2.859 6.789l-.153.347-11.28 23.743-11.146-23.715c-.089-.21-.252-.556-.477-1.04-1.145-2.39-1.992-4.434-2.534-6.123.28 1.962.487 3.705.64 5.228.153 1.524.225 2.729.225 3.623v21.252h-9.53V68.351h12.759l10.118 22.94 10.667-22.94h12.29v41.838zm38.432-8.532c3.246 0 5.905-1.149 7.971-3.458 2.065-2.308 3.102-5.274 3.102-8.915s-1.037-6.606-3.102-8.915-4.725-3.458-7.971-3.458c-3.256 0-5.925 1.149-7.99 3.458-2.065 2.308-3.102 5.274-3.102 8.915 0 3.623 1.037 6.589 3.12 8.907 2.074 2.308 4.734 3.467 7.972 3.467zm0-34.109c3.102 0 5.951.521 8.539 1.551 2.588 1.031 4.888 2.573 6.917 4.626a20.1 20.1 0 0 1 4.572 6.953c1.037 2.638 1.56 5.502 1.56 8.605 0 3.085-.523 5.932-1.56 8.55a20.7 20.7 0 0 1-4.572 6.981 20.3 20.3 0 0 1-6.935 4.627c-2.615 1.049-5.455 1.578-8.52 1.578-3.058 0-5.906-.529-8.54-1.578a19.9 19.9 0 0 1-6.934-4.627 20.7 20.7 0 0 1-4.572-6.981c-1.037-2.618-1.56-5.465-1.56-8.55 0-3.084.515-5.94 1.542-8.577a20.5 20.5 0 0 1 4.536-6.981 20.1 20.1 0 0 1 6.935-4.608q3.925-1.572 8.593-1.57zm34.076 42.641V76.855h-9.324V68.35h28.999v8.505h-9.297v33.333h-10.379zm44.472-8.532c3.246 0 5.906-1.149 7.971-3.458 2.066-2.308 3.102-5.274 3.102-8.915s-1.036-6.606-3.102-8.915-4.725-3.458-7.971-3.458c-3.255 0-5.924 1.149-7.989 3.458-2.065 2.308-3.102 5.274-3.102 8.915 0 3.623 1.037 6.589 3.12 8.907 2.074 2.308 4.734 3.467 7.971 3.467zm0-34.109c3.102 0 5.952.521 8.54 1.551 2.588 1.031 4.888 2.573 6.917 4.626a20.1 20.1 0 0 1 4.572 6.953c1.036 2.638 1.559 5.502 1.559 8.605 0 3.085-.523 5.932-1.559 8.55a20.7 20.7 0 0 1-4.572 6.981 20.3 20.3 0 0 1-6.935 4.627c-2.615 1.049-5.455 1.578-8.521 1.578-3.057 0-5.906-.529-8.539-1.578a19.9 19.9 0 0 1-6.934-4.627 20.65 20.65 0 0 1-4.572-6.981c-1.037-2.618-1.56-5.465-1.56-8.55 0-3.084.514-5.94 1.542-8.577a20.5 20.5 0 0 1 4.536-6.981 20.1 20.1 0 0 1 6.934-4.608c2.615-1.049 5.483-1.57 8.594-1.57zm42.075 8.961h-2.822v11.57h3.093c1.993 0 3.525-.511 4.608-1.524q1.623-1.52 1.623-4.353 0-2.888-1.596-4.298c-1.064-.931-2.696-1.396-4.906-1.396zm-13.201 33.68V68.35h15.158c4.635 0 8.305 1.214 11.019 3.632 2.715 2.427 4.067 5.694 4.067 9.791 0 3.221-.82 5.841-2.452 7.857-1.642 2.016-3.869 3.157-6.691 3.422l10.812 17.137h-12.498l-9.035-17.803v17.803zm38.197 0V68.35h14.445q6.558-.002 10.424 3.787c2.579 2.519 3.869 5.913 3.869 10.193 0 4.635-1.254 8.167-3.76 10.585q-3.774 3.642-11.01 3.641h-3.589v13.632zm10.379-22.11h1.587c2.011 0 3.553-.511 4.635-1.524q1.623-1.52 1.623-4.353c0-1.925-.532-3.357-1.587-4.297-1.056-.931-2.678-1.397-4.887-1.397h-1.371zm44.527 13.578c3.246 0 5.906-1.149 7.971-3.458 2.065-2.308 3.102-5.274 3.102-8.915s-1.037-6.606-3.102-8.915-4.725-3.458-7.971-3.458c-3.255 0-5.924 1.149-7.989 3.458-2.065 2.308-3.102 5.274-3.102 8.915 0 3.623 1.037 6.589 3.119 8.907 2.074 2.308 4.734 3.467 7.972 3.467zm0-34.109c3.102 0 5.952.521 8.54 1.551 2.588 1.031 4.887 2.573 6.916 4.626a20 20 0 0 1 4.572 6.953c1.037 2.638 1.56 5.502 1.56 8.605 0 3.085-.523 5.932-1.56 8.55a20.7 20.7 0 0 1-4.572 6.981 20.3 20.3 0 0 1-6.934 4.627c-2.615 1.049-5.455 1.578-8.521 1.578-3.057 0-5.906-.529-8.539-1.578a19.9 19.9 0 0 1-6.934-4.627 20.65 20.65 0 0 1-4.572-6.981c-1.037-2.618-1.56-5.465-1.56-8.55 0-3.084.514-5.94 1.542-8.577a20.5 20.5 0 0 1 4.535-6.981 20.1 20.1 0 0 1 6.935-4.608c2.615-1.049 5.483-1.57 8.593-1.57zm48.468 34.109c3.246 0 5.905-1.149 7.971-3.458 2.065-2.308 3.102-5.274 3.102-8.915s-1.037-6.606-3.102-8.915-4.725-3.458-7.971-3.458c-3.256 0-5.925 1.149-7.99 3.458-2.065 2.308-3.102 5.274-3.102 8.915 0 3.623 1.037 6.589 3.12 8.907 2.074 2.308 4.734 3.467 7.972 3.467zm0-34.109c3.101 0 5.951.521 8.539 1.551 2.588 1.031 4.887 2.573 6.917 4.626a20.1 20.1 0 0 1 4.572 6.953c1.037 2.638 1.56 5.502 1.56 8.605 0 3.085-.523 5.932-1.56 8.55a20.7 20.7 0 0 1-4.572 6.981 20.3 20.3 0 0 1-6.935 4.627c-2.615 1.049-5.455 1.578-8.521 1.578-3.057 0-5.906-.529-8.539-1.578a19.9 19.9 0 0 1-6.934-4.627 20.65 20.65 0 0 1-4.572-6.981c-1.037-2.618-1.56-5.465-1.56-8.55 0-3.084.514-5.94 1.542-8.577a20.5 20.5 0 0 1 4.536-6.981 20.1 20.1 0 0 1 6.935-4.608c2.615-1.049 5.482-1.57 8.593-1.57zm28.872 42.641V68.35h10.379v33.361h10.46v8.477z" style="stroke:#05203d;stroke-width:.301;stroke-miterlimit:2.61313;fill:#05203d;fill-rule:nonzero"/></svg>